<svg width="376" height="343" viewBox="0 0 376 343" fill="none" xmlns="http://www.w3.org/2000/svg">
<circle cx="185.644" cy="186.665" r="155.628" fill="#E9EFFA"/>
<circle cx="39.7701" cy="81.5828" r="9.75447" fill="#E9EFFA"/>
<circle cx="296.49" cy="18.1788" r="18.1788" fill="#E9EFFA"/>
<circle cx="42.8731" cy="286.87" r="17.292" fill="#E9EFFA"/>
<circle cx="352.356" cy="270.022" r="17.292" fill="#E9EFFA"/>
<circle cx="318.659" cy="289.53" r="8.42431" fill="#E9EFFA"/>
<path d="M360.478 216.665L363.193 229.494L375.839 232.249L363.193 235.004L360.478 247.833L357.762 235.004L345.116 232.249L357.762 229.494L360.478 216.665Z" fill="white"/>
<path d="M344.237 85.6814C344.436 84.7438 345.774 84.7438 345.972 85.6814L347.702 93.8512C347.774 94.1925 348.039 94.4598 348.38 94.534L356.489 96.3005C357.42 96.5032 357.42 97.8306 356.489 98.0334L348.38 99.7998C348.039 99.8741 347.774 100.141 347.702 100.483L345.972 108.652C345.774 109.59 344.436 109.59 344.237 108.652L342.508 100.483C342.436 100.141 342.17 99.8741 341.829 99.7998L333.72 98.0334C332.79 97.8306 332.79 96.5032 333.72 96.3005L341.829 94.534C342.17 94.4598 342.436 94.1925 342.508 93.8512L344.237 85.6814Z" fill="#9CB6E6"/>
<path d="M22.2321 192.98C22.4305 192.043 23.7687 192.043 23.9672 192.98L26.9315 206.985C27.0037 207.326 27.2694 207.593 27.6103 207.668L41.47 210.687C42.4007 210.89 42.4007 212.217 41.47 212.42L27.6103 215.439C27.2694 215.513 27.0037 215.781 26.9315 216.122L23.9672 230.126C23.7687 231.064 22.4305 231.064 22.2321 230.126L19.2678 216.122C19.1955 215.781 18.9299 215.513 18.589 215.439L4.72923 212.42C3.79855 212.217 3.79855 210.89 4.72923 210.687L18.589 207.668C18.9299 207.593 19.1955 207.326 19.2678 206.985L22.2321 192.98Z" fill="#9CB6E6"/>
<path d="M77.4796 43.9281C76.9655 43.8188 76.9655 43.085 77.4796 42.9757L85.2527 41.3227C85.4401 41.2829 85.5867 41.1369 85.6273 40.9497L87.3009 33.2314C87.4119 32.7198 88.1416 32.7198 88.2525 33.2314L89.9262 40.9497C89.9668 41.1369 90.1134 41.2829 90.3007 41.3227L98.0738 42.9757C98.588 43.085 98.588 43.8188 98.0739 43.9281L90.3007 45.5811C90.1134 45.6209 89.9668 45.7669 89.9262 45.9541L88.2525 53.6725C88.1416 54.1841 87.4119 54.1841 87.3009 53.6725L85.6273 45.9541C85.5867 45.7669 85.4401 45.6209 85.2527 45.5811L77.4796 43.9281Z" fill="#9CB6E6"/>
<circle cx="203.37" cy="100.322" r="98.4314" fill="url(#paint0_linear_224_18789)" stroke="#9CB6E6" stroke-width="3.54708"/>
<circle cx="203.37" cy="100.321" r="82.4696" fill="#E9EFFA" stroke="#9CB6E6" stroke-width="3.54708"/>
<path d="M75.0049 282.665L128.204 208.777L130.569 207.003L135.889 205.821H143.573L147.711 208.777L151.849 210.55L155.395 214.688L158.351 221.19L112.245 308.082L106.925 311.038H100.422L91.5559 308.082L84.4626 305.127L77.9604 296.26L75.0049 292.714V282.665Z" fill="url(#paint1_linear_224_18789)"/>
<path d="M168.399 192.817L154.912 214.688" stroke="#9CB6E6" stroke-width="3.54708"/>
<path d="M152.548 185.723L139.544 205.23" stroke="#9CB6E6" stroke-width="3.54708"/>
<path d="M131.75 205.821L74.4131 284.438" stroke="#9CB6E6" stroke-width="3.54708"/>
<path d="M157.759 220.008L111.653 309.264" stroke="#9CB6E6" stroke-width="3.54708"/>
<path d="M130.568 207.003L131.541 206.462C133.67 205.276 136.116 204.787 138.537 205.061V205.061C139.526 205.173 140.496 205.411 141.424 205.769L143.09 206.412L143.652 206.599C146.781 207.643 149.624 209.4 151.957 211.732V211.732L153.79 213.565C154.535 214.311 155.186 215.145 155.729 216.049V216.049C156.363 217.106 156.843 218.249 157.153 219.443L157.759 221.781" stroke="#9CB6E6" stroke-width="3.54708"/>
<path d="M112.835 308.083L110.317 309.215C107.878 310.312 105.248 310.92 102.575 311.004V311.004C100.499 311.069 98.4254 310.817 96.4254 310.257L94.7297 309.783L94.1609 309.59C89.1357 307.885 84.5593 305.069 80.7716 301.353V301.353L78.5819 299.204C76.8698 297.524 75.5867 295.457 74.8407 293.177V293.177C73.9127 290.342 73.8537 287.293 74.6713 284.423L75.0039 283.256" stroke="#9CB6E6" stroke-width="3.54708"/>
<defs>
<linearGradient id="paint0_linear_224_18789" x1="203.37" y1="0.116699" x2="203.37" y2="200.527" gradientUnits="userSpaceOnUse">
<stop stop-color="#96BCFF"/>
<stop offset="1" stop-color="#E9EFFA"/>
</linearGradient>
<linearGradient id="paint1_linear_224_18789" x1="116.678" y1="205.821" x2="116.678" y2="311.038" gradientUnits="userSpaceOnUse">
<stop stop-color="#96BCFF"/>
<stop offset="1" stop-color="#E9EFFA"/>
</linearGradient>
</defs>
</svg>
