<svg width="51" height="34" viewBox="0 0 51 34" fill="none" xmlns="http://www.w3.org/2000/svg">
<path d="M34.0625 24.8125C36.125 22.9375 37.4375 20.875 38 19L44.5625 15.25C45.6875 15.8125 47 15.8125 48.125 15.25C49.8125 14.3125 50.5625 12.0625 49.4375 10.375C49.0625 9.8125 48.6875 9.4375 48.125 9.0625C48.125 8.5 47.9375 7.75 47.75 7.1875C46.8125 5.5 44.5625 4.9375 42.875 5.875C41.75 6.625 41 7.75 41 9.0625L34.4375 12.8125C31.625 12.0625 27.5 12.625 23.75 14.875C20.9375 16.5625 18.6875 18.625 17.5625 20.875" stroke="#2761C9" stroke-width="2" stroke-miterlimit="10" stroke-linecap="round" stroke-linejoin="round"/>
<path d="M38.5625 18.625C38.9375 19.75 39.125 21.0625 39.125 22.1875C39.125 30.8125 30.6875 32.875 20.375 32.875C10.0625 32.875 1.625 30.8125 1.625 22.1875C1.625 13.5625 10.0625 6.625 20.375 6.625C26.375 6.625 31.625 8.875 35 12.4375" stroke="#2761C9" stroke-width="2" stroke-miterlimit="10" stroke-linecap="round" stroke-linejoin="round"/>
<path d="M40.4375 9.25C40.8125 8.3125 40.625 7.375 40.0625 6.4375C39.6875 5.875 39.3125 5.5 38.75 5.125C38.75 4.5625 38.5625 3.8125 38.375 3.25C37.4375 1.5625 35.1875 0.999996 33.5 1.9375C32.375 2.6875 31.625 3.8125 31.625 5.125L27.3125 7.5625" stroke="#2761C9" stroke-width="2" stroke-miterlimit="10" stroke-linecap="round" stroke-linejoin="round"/>
</svg>
