<svg width="60" height="59" viewBox="0 0 60 59" fill="none" xmlns="http://www.w3.org/2000/svg">
<path fill-rule="evenodd" clip-rule="evenodd" d="M19.3935 50.4632C17.9291 51.9277 15.5547 51.9277 14.0902 50.4632C12.9361 49.3091 12.6915 47.59 13.3564 46.1964L13.0538 45.8937C11.6602 46.5586 9.941 46.314 8.78692 45.1599C7.32246 43.6954 7.32246 41.3211 8.78692 39.8566C10.2514 38.3921 12.6258 38.3921 14.0902 39.8566C14.4006 40.167 14.6452 40.5182 14.824 40.8931L20.2774 35.4372L23.8129 38.9727L18.3595 44.4272C18.7334 44.606 19.0838 44.8502 19.3935 45.1599C20.858 46.6244 20.858 48.9987 19.3935 50.4632ZM48.5617 10.6884C54.4195 16.5463 54.4195 26.0438 48.5617 31.9017C46.3569 34.1064 42.1633 35.7911 35.9808 36.9559C33.5111 37.4211 31.2389 38.6201 29.4609 40.3962L29.1162 40.7405C28.1399 41.7168 26.557 41.7168 25.5807 40.7405L18.5096 33.6694C17.5333 32.6931 17.5333 31.1102 18.5096 30.1339L18.8498 29.7937C20.6289 28.0148 21.8297 25.7404 22.2953 23.268C23.4593 17.0864 25.1437 12.8932 27.3485 10.6884C33.2063 4.83059 42.7038 4.83059 48.5617 10.6884Z" stroke="#2761C9" stroke-width="2.5" stroke-linecap="round"/>
</svg>
