<svg width="69" height="56" viewBox="0 0 69 56" fill="none" xmlns="http://www.w3.org/2000/svg">
<path d="M44.0389 7.97558L44.0402 7.97589C44.0411 7.9761 44.0427 7.97549 44.0438 7.97572L44.0389 7.97558Z" fill="#2761C9"/>
<path d="M60.9028 35.7331C61.3204 35.049 62.1714 33.6349 63.0812 31.9926C63.7165 30.8457 64.3764 29.5955 64.933 28.4074C65.4892 27.2122 65.9445 26.1092 66.1714 25.1144C66.2559 24.7257 66.3135 24.3509 66.2911 23.9225C66.2778 23.7078 66.2433 23.4747 66.1513 23.2205C66.0607 22.9688 65.902 22.6879 65.6549 22.4546C65.3095 22.1261 64.9016 21.9567 64.5426 21.8774C63.978 21.757 63.48 21.799 62.9712 21.882C62.0879 22.0367 61.156 22.3663 60.1591 22.7903C58.6709 23.4289 57.0662 24.2926 55.6226 25.1657C54.6882 25.7323 53.8456 26.2906 53.1279 26.8128C49.4336 23.3771 46.0471 20.6749 44.4593 19.4454C44.6036 19.1117 44.7692 18.7214 44.946 18.2821C45.4769 16.9606 46.0977 15.2616 46.4633 13.6339C46.6917 12.5841 46.839 11.5783 46.7079 10.5786C46.6365 10.0799 46.4885 9.55616 46.1375 9.06411C45.796 8.57032 45.2031 8.17162 44.5845 8.04422C44.4051 8.00409 44.2226 7.982 44.04 7.97576C43.004 7.93787 41.8802 8.11692 40.6334 8.41566C36.99 9.30528 32.281 11.3265 28.0744 13.3236C23.7093 13.5463 18.8435 14.481 14.6615 16.0257C12.5211 16.8182 10.5599 17.7683 8.93062 18.9005C7.30696 20.0341 5.98511 21.3538 5.24556 22.9779L5.09036 23.3212L5.11849 23.6975C5.35018 26.797 6.68691 29.666 8.62767 32.2642C11.5478 36.1658 15.8493 39.5405 20.3691 42.41C24.89 45.2749 29.6384 47.6177 33.455 49.3368C33.8707 49.5238 34.273 49.6643 34.6716 49.7534C35.2434 49.8813 35.8176 49.9039 36.366 49.785C37.1961 49.6137 37.8861 49.0874 38.2973 48.5028C38.7196 47.9146 38.9376 47.2828 39.0781 46.6663C39.3255 45.5424 39.3105 44.4194 39.2577 43.5411C39.2548 43.5 39.2511 43.4684 39.2486 43.4293C41.269 42.9761 45.3829 41.988 50.0652 40.4929C50.3334 40.9811 50.6418 41.5042 50.9864 42.0571C51.9576 43.6088 53.1827 45.3378 54.4093 46.7734C55.0251 47.4919 55.6383 48.1363 56.2518 48.6613C56.56 48.9241 56.8683 49.1574 57.1959 49.3563C57.5248 49.5534 57.8711 49.7229 58.2935 49.8203C58.6519 49.9004 59.0914 49.9216 59.5437 49.7725L59.5035 49.7862L59.5462 49.7721C59.8693 49.6652 60.1319 49.4797 60.3213 49.2896C60.6074 49.0015 60.7612 48.7114 60.8822 48.4338C61.0007 48.1536 61.0807 47.8757 61.146 47.5857C61.3645 46.5889 61.4226 45.3962 61.4286 44.0779C61.4329 40.9085 61.0507 37.0958 60.9028 35.7331ZM56.8456 45.057C55.9116 43.9924 54.9056 42.6319 54.0533 41.3433C53.202 40.0588 52.4936 38.8212 52.1632 38.0825L51.6132 36.8636L50.3443 37.2851C46.8713 38.4373 43.6081 39.3209 41.2201 39.9144C40.0253 40.2121 39.0498 40.4361 38.3743 40.5857C38.0369 40.6617 37.7747 40.7177 37.5978 40.7543C37.4208 40.7919 37.3337 40.8089 37.3337 40.8089L35.9158 41.0943L36.1654 42.519L36.167 42.5314C36.1827 42.6229 36.269 43.1724 36.3061 43.8672C36.3459 44.5586 36.3253 45.4047 36.1839 46.0191C36.1309 46.2575 36.0618 46.4587 35.9931 46.5977C35.8844 46.8137 35.8115 46.8568 35.7875 46.8693C35.7614 46.8771 35.6864 46.9347 35.3188 46.8593C35.153 46.8222 34.9363 46.7519 34.6724 46.6336C30.9193 44.9446 26.2547 42.6342 21.891 39.862C22.6931 39.3983 23.4229 38.8415 24.0652 38.1967C25.6028 36.6542 26.7096 34.6929 27.5587 32.6105C28.4066 30.526 28.9966 28.3106 29.4618 26.2325C29.581 25.6993 29.2456 25.1711 28.7129 25.052C28.1801 24.9328 27.6518 25.2678 27.5325 25.801C26.9313 28.4957 26.1182 31.3595 24.8693 33.7173C24.2465 34.8967 23.5171 35.9483 22.6659 36.8005C21.8866 37.5798 21.0031 38.1864 19.9883 38.6063C19.2268 38.0859 18.4778 37.5534 17.7541 37.0057C15.0763 34.9824 12.7114 32.7787 11.004 30.4897C9.39055 28.3296 8.38285 26.1189 8.12456 23.8879C8.58712 23.0535 9.42081 22.1677 10.6239 21.3348C12.6436 19.9249 15.5798 18.6961 18.7746 17.82C21.9696 16.94 25.4284 16.3979 28.5144 16.2661L28.8165 16.2534L29.0897 16.1226C31.8767 14.7912 34.9179 13.4425 37.6226 12.4568C38.9738 11.9638 40.2409 11.5616 41.3329 11.2974C42.3318 11.052 43.178 10.9374 43.762 10.9405C43.7855 11.0783 43.8026 11.2977 43.7855 11.5739C43.7646 11.9639 43.6888 12.4554 43.5695 12.9866C43.2683 14.3397 42.6937 15.9404 42.1953 17.1742C41.9462 17.7922 41.717 18.3216 41.5507 18.6939C41.4676 18.8801 41.4005 19.0273 41.3545 19.1268L41.3022 19.2387L41.2862 19.2728L40.7614 20.374L41.7414 21.1006C41.7417 21.1017 41.8126 21.1542 41.9568 21.2635C42.9654 22.0252 47.3705 25.4171 52.0106 29.8319L52.9796 30.754L53.9964 29.8854C54.4696 29.4788 55.281 28.8917 56.2295 28.2818C57.6545 27.364 59.4121 26.3741 60.9485 25.6831C61.7148 25.337 62.4281 25.0672 62.9831 24.9164C63.0488 24.8984 63.104 24.887 63.1649 24.873C62.9844 25.4657 62.6596 26.2764 62.2478 27.1488C61.4776 28.7947 60.4383 30.6732 59.5965 32.126C59.1758 32.853 58.8034 33.4761 58.5376 33.915C58.4048 34.1345 58.2981 34.3086 58.2252 34.4268C58.1528 34.5451 58.1153 34.605 58.1151 34.6058L57.8393 35.0476L57.9006 35.5648C57.9004 35.5658 57.9156 35.6928 57.9419 35.9331C58.0343 36.7718 58.257 38.9335 58.3788 41.2023C58.4398 42.3357 58.4757 43.4962 58.4587 44.5182C58.448 45.3002 58.4001 46.0057 58.3254 46.5232C57.9122 46.1927 57.3906 45.6814 56.8456 45.057Z" fill="#2761C9"/>
<path d="M17.2841 21.8512C16.0463 21.5744 14.8186 22.3533 14.542 23.5903C14.2649 24.829 15.0438 26.0568 16.2817 26.3337C17.5191 26.6104 18.7469 25.8314 19.0239 24.5926C19.3004 23.3557 18.5215 22.128 17.2841 21.8512Z" fill="#2761C9"/>
</svg>
