<svg width="72" height="72" viewBox="0 0 72 72" fill="none" xmlns="http://www.w3.org/2000/svg">
<path d="M26.6134 29.2116C26.6077 29.2105 26.6019 29.2094 26.5963 29.2084C25.5764 29.0171 24.6038 29.7102 24.4283 30.7536C24.2537 31.7911 24.9318 32.79 25.9424 32.9892C25.948 32.9904 25.9538 32.9915 25.9594 32.9925C26.9793 33.1838 27.9519 32.4906 28.1274 31.4473C28.3019 30.4098 27.6238 29.4108 26.6134 29.2116Z" fill="#2761C9"/>
<path d="M46.7966 32.9149C46.3025 32.8222 45.805 32.9319 45.3955 33.2238C44.9859 33.5156 44.7135 33.9546 44.6285 34.46C44.4539 35.4976 45.1321 36.4966 46.1426 36.6958C46.1482 36.6969 46.154 36.6981 46.1595 36.6991C46.6536 36.7917 47.1512 36.682 47.5607 36.3902C47.9702 36.0983 48.2425 35.6594 48.3276 35.154C48.4127 34.6486 48.3004 34.1373 48.0112 33.7144C47.7221 33.2915 47.2944 33.0053 46.7966 32.9149Z" fill="#2761C9"/>
<path d="M63.6204 32.0218C62.2704 30.9137 60.32 29.6826 59.1864 29.4591C59.1792 29.4577 59.1719 29.4563 59.1648 29.455C58.2309 29.2798 57.344 29.7186 56.4864 30.1428C55.3517 30.7042 54.5935 31.0352 53.8603 30.585C54.3276 28.8636 54.6693 27.51 54.8569 26.6887C57.3955 26.4567 65.1636 25.5887 67.7204 23.4777C69.1741 22.2774 69.8284 19.9357 69.6648 16.5175C69.5503 14.1222 69.0725 12.0615 69.0522 11.975C68.9543 11.5567 68.5985 11.2524 68.1808 11.2279C67.7626 11.2037 67.382 11.4653 67.247 11.87C66.7696 13.3019 65.2853 17.3229 64.1707 18.7088C64.1426 18.7374 63.4264 19.4069 58.5304 19.2639C55.9163 19.1876 53.4508 18.9162 53.4261 18.9136C53.3385 18.9039 53.2528 18.9077 53.1702 18.9218C52.5837 18.1605 51.8827 17.4749 51.0835 16.9106C48.3887 15.0083 43.6355 13.5826 40.0855 12.8826C36.5356 12.1827 31.6147 11.7009 28.4497 12.4479C27.5119 12.6692 26.6242 13.0407 25.8171 13.5262C25.7465 13.4833 25.67 13.4482 25.5872 13.4246C25.5634 13.4178 23.1716 12.7313 20.708 11.8066C16.0943 10.0745 15.6562 9.17751 15.6425 9.14749C15.0761 7.42335 15.0716 3.10884 15.1177 1.59182C15.1307 1.1631 14.8656 0.773996 14.4673 0.637393C14.069 0.500434 13.6334 0.649237 13.3986 1.00189C13.3499 1.07486 12.1975 2.81409 11.2691 5.00379C9.94412 8.12842 9.7508 10.5611 10.6943 12.234C12.3843 15.2301 19.4561 19.0786 21.5705 20.1811C21.4601 21.0571 21.31 22.5049 21.1518 24.35C20.2697 24.5657 19.6543 23.9737 18.7416 23.0013C18.0749 22.2911 17.3811 21.5586 16.4516 21.3815C15.3213 21.1694 13.0705 21.6182 11.4311 22.1709C8.84156 23.0441 7.41502 24.1608 7.19127 25.4899C6.879 27.3447 9.90364 30.3407 12.8134 31.8696C13.8479 32.4131 14.8602 32.7797 15.8315 32.9711C17.6022 33.3201 19.2339 33.0838 20.6082 32.2778C20.1387 41.2182 20.0283 52.5414 21.6454 58.7235C21.6546 58.7588 21.6673 58.792 21.6799 58.8253C21.3626 60.0015 21.4944 61.2581 22.07 62.3643C22.7567 63.6838 23.9696 64.5892 25.3933 64.8611L36.2143 67.0131C36.2148 67.0132 36.2154 67.0133 36.2159 67.0134C36.2187 67.0139 36.2215 67.0145 36.2243 67.015C37.6559 67.2836 39.0937 66.8702 40.169 65.8812C41.1356 64.9921 41.6799 63.7548 41.7019 62.4345C45.3214 57.1581 49.0749 46.5716 51.6714 38.1302C52.6692 39.3724 54.0795 40.1907 55.8028 40.5305C56.8198 40.731 57.9449 40.7657 59.1571 40.6241C62.3878 40.247 66.2052 38.5343 66.5175 36.6794C66.7412 35.3504 65.7665 33.7834 63.6204 32.0218ZM58.5943 21.1945C63.8221 21.3375 65.0964 20.6052 65.6227 19.9511C66.3489 19.0485 67.1193 17.4268 67.7436 15.9271C67.7614 16.1534 67.7761 16.3846 67.787 16.6185C67.9116 19.2982 67.4654 21.1991 66.5306 21.9709C64.7014 23.4813 58.5118 24.3819 55.1625 24.7202C55.2009 23.4633 54.9215 22.162 54.3771 20.9416C55.3863 21.0311 56.9515 21.1495 58.5943 21.1945ZM12.3207 11.2822C11.7139 10.2064 11.95 8.26425 12.9854 5.81317C13.0758 5.59924 13.1689 5.38939 13.2631 5.18504C13.3307 6.82136 13.4928 8.62673 13.8601 9.74498C14.1262 10.5553 15.0632 11.7236 19.9865 13.5821C21.5294 14.1644 23.0253 14.6494 23.9973 14.9505C23.0583 15.8935 22.345 17.0178 21.9526 18.2227C19.014 16.6536 13.5223 13.4127 12.3207 11.2822ZM20.6919 29.7731C19.6872 30.8459 17.8407 31.8695 14.7488 30.6568C13.3475 30.107 11.861 29.1411 10.6706 28.0068C9.49488 26.8866 9.07704 26.0618 9.05006 25.8157C9.13952 25.4542 9.99262 24.6927 12.0365 24.0033C13.8933 23.3772 15.6082 23.1798 16.1323 23.2781C16.1336 23.2784 16.1347 23.2786 16.1359 23.2788C16.4667 23.3441 16.9585 23.8679 17.3924 24.3304C18.2401 25.2334 19.3596 26.4247 20.9917 26.3239C20.9111 27.3746 20.8312 28.5108 20.7559 29.7111C20.734 29.7307 20.7125 29.7512 20.6919 29.7731ZM38.9039 64.4397C38.2617 65.0305 37.4032 65.278 36.5482 65.1191L25.7225 62.9663C24.867 62.804 24.1389 62.2608 23.728 61.471C23.3171 60.6814 23.2828 59.7633 23.6336 58.9521L24.8964 56.0327C25.1141 55.5295 25.4208 55.0937 25.789 54.74C25.7944 55.0867 25.8584 55.4109 25.9626 55.6791C26.1479 56.156 26.4672 56.5864 26.7759 57.0026C26.9973 57.3012 27.4096 57.8568 27.4009 58.0385C27.4002 58.0402 27.3172 58.2191 26.7748 58.4672C26.3023 58.6835 26.0943 59.2532 26.3104 59.7399C26.4434 60.0395 26.7061 60.2376 26.9987 60.2953C27.1814 60.3314 27.3756 60.3126 27.5572 60.2294C28.5068 59.7948 29.0527 59.2382 29.2256 58.5278C29.4808 57.4795 28.809 56.5737 28.269 55.8459C28.0378 55.5341 27.7987 55.2117 27.7096 54.9825C27.6398 54.8027 27.6475 54.4118 27.8437 54.1451C28.0988 53.7983 28.6126 53.7633 29.0182 53.8001L36.3265 55.2895C36.7262 55.3989 37.2243 55.6194 37.3548 56.0514C37.4519 56.3731 37.3315 56.7429 37.2074 56.8861C37.0494 57.0685 36.7358 57.2814 36.4327 57.4874C35.7082 57.9796 34.8066 58.5921 34.7135 59.665C34.6498 60.3997 34.9868 61.1266 35.7439 61.8873C35.8828 62.0269 36.0527 62.1142 36.2298 62.1491C36.5282 62.208 36.8472 62.1184 37.0741 61.881C37.4358 61.5028 37.4267 60.8922 37.0536 60.5174C36.6072 60.0689 36.5876 59.8585 36.5873 59.8585C36.6281 59.6797 37.206 59.2871 37.4838 59.0984C37.886 58.8252 38.3018 58.5427 38.6201 58.1755C38.8157 57.9497 38.9888 57.6484 39.1079 57.3019C39.3726 57.7897 39.5405 58.336 39.5822 58.9095L39.8149 62.1095C39.8795 62.9986 39.5475 63.848 38.9039 64.4397ZM41.4847 59.1489L41.4584 58.7868C41.2677 56.1661 39.3177 53.9198 36.8129 53.4259C36.7992 53.4232 36.7854 53.4205 36.7717 53.4179L29.3639 51.9082C29.3455 51.9037 29.3268 51.9002 29.308 51.8968L29.2429 51.8835C29.238 51.8825 29.2334 51.8816 29.2286 51.8807C26.7221 51.4105 24.2327 52.7898 23.1751 55.2349L22.9523 55.75C22.0755 50.2923 22.101 42.4816 22.3086 36.4806C22.578 28.6875 23.2407 21.5127 23.5202 19.8517C23.5253 19.8216 23.5286 19.7916 23.5309 19.7618C23.8448 17.3053 26.1332 14.978 28.891 14.3271C31.264 13.767 35.5263 13.9432 39.7496 14.7759C43.973 15.6086 48.0073 17.0683 50.0278 18.4946C52.3045 20.1019 53.629 23.0107 53.206 25.3828C53.1527 25.5035 53.1236 25.637 53.1237 25.7769C52.7708 27.573 50.948 34.4088 48.5652 41.6576C46.7301 47.2406 44.1299 54.3916 41.4847 59.1489ZM62.4297 37.777C60.9419 38.409 59.2313 38.7753 57.7362 38.7818C54.4379 38.796 53.0383 37.1635 52.4453 35.791C52.4327 35.7617 52.4186 35.7336 52.4036 35.7062C52.7438 34.5587 53.0572 33.4714 53.3401 32.4663C54.8211 33.1159 56.2409 32.4148 57.3191 31.8813C57.8796 31.604 58.5148 31.2897 58.8456 31.3518C58.8481 31.3523 58.8508 31.3528 58.8533 31.3533C59.3849 31.4581 60.9228 32.2651 62.4539 33.522C64.1479 34.9123 64.7 35.9374 64.6661 36.3093C64.5606 36.5306 63.8991 37.1529 62.4297 37.777Z" fill="#2761C9"/>
<path d="M47.6606 21.0753C48.073 20.7605 48.1537 20.1612 47.8404 19.7369C47.5272 19.3127 46.9391 19.224 46.5266 19.539C45.6714 20.192 41.5163 21.4759 38.6631 21.4904L39.6766 19.1578C39.8353 18.7929 39.7529 18.3631 39.4704 18.0815C39.1877 17.7997 38.7651 17.7259 38.4111 17.8962C36.8116 18.6662 30.6191 20.1238 26.3919 19.3346C25.8815 19.2393 25.3966 19.5833 25.3087 20.103C25.2212 20.6199 25.5593 21.1157 26.065 21.2149C26.0678 21.2154 26.0708 21.216 26.0736 21.2166C29.5986 21.8747 34.2414 21.1364 37.0949 20.3592L36.408 21.9398C36.2914 22.208 36.3031 22.5174 36.4396 22.7786C36.5748 23.0371 36.8174 23.2197 37.0984 23.2749C37.1012 23.2754 37.1039 23.276 37.1068 23.2766C40.3541 23.8828 46.2523 22.1505 47.6606 21.0753Z" fill="#2761C9"/>
<path d="M47.1874 25.1474C47.3718 25.1838 47.5682 25.1643 47.7511 25.0792C48.6811 24.6466 49.9848 23.5239 50.1306 23.3971C50.5246 23.0545 50.5695 22.4465 50.2311 22.0388C49.8926 21.6309 49.2986 21.5784 48.9045 21.9208C48.563 22.2175 47.5475 23.0474 46.9582 23.3215C46.4871 23.5408 46.2826 24.112 46.5015 24.5972C46.6354 24.8941 46.8967 25.0901 47.1874 25.1474Z" fill="#2761C9"/>
</svg>
