<svg width="71" height="74" viewBox="0 0 71 74" fill="none" xmlns="http://www.w3.org/2000/svg">
<path d="M26.7538 8.55443L14.4557 64.1986L15.3258 64.5142C15.4801 64.5718 19.1834 65.9128 24.5564 66.7869C33.5728 68.2525 40.0347 67.2022 43.8667 66.0622C50.8105 63.9966 56.7087 59.512 60.4343 56.1137C64.4548 52.4453 66.8225 49.2969 66.9218 49.1652L67.4779 48.4253L26.7538 8.55443ZM27.9914 12.7145L59.5164 43.5861C55.6873 47.763 49.31 54.6904 41.1978 57.1036C33.0856 59.5169 23.9598 57.2053 18.4715 55.8002L27.9914 12.7145ZM43.2598 64.0395C32.4614 67.2518 20.2402 63.8725 16.9152 62.8201L18.0155 57.8597C23.7233 59.3198 33.1648 61.6967 41.7988 59.1282C50.4328 56.5597 57.0422 49.408 61.0238 45.0654L64.6571 48.624C62.4512 51.3206 54.0771 60.8254 43.2609 64.043L43.2598 64.0395Z" fill="#2761C9"/>
<path d="M41.7514 40.7393C41.8288 40.9427 43.1013 42.1891 43.7552 42.8213C43.7889 42.8556 43.8319 42.8793 43.8789 42.8895C43.9259 42.8998 43.9749 42.8961 44.0198 42.8791C44.0648 42.862 44.1038 42.8322 44.1322 42.7933C44.1605 42.7545 44.1769 42.7082 44.1794 42.6602C44.2483 41.7522 44.3694 39.976 44.2921 39.7726C44.2401 39.591 44.151 39.4221 44.0304 39.2768C43.9098 39.1314 43.7603 39.0127 43.5914 38.9281C43.4225 38.8435 43.2379 38.7949 43.0493 38.7854C42.8606 38.7759 42.672 38.8057 42.4955 38.8728C42.319 38.94 42.1583 39.0431 42.0237 39.1756C41.8891 39.3081 41.7834 39.4672 41.7135 39.6426C41.6435 39.8181 41.6108 40.0061 41.6173 40.1949C41.6238 40.3837 41.6695 40.5691 41.7514 40.7393Z" fill="#2761C9"/>
<path d="M38.4257 35.0542C38.9889 34.3381 40.0788 32.931 40.1282 32.7183C40.1775 32.3795 40.0977 32.0345 39.9045 31.7519C39.7113 31.4692 39.4189 31.2695 39.0853 31.1925C38.7516 31.1154 38.4013 31.1667 38.1037 31.336C37.8061 31.5054 37.5831 31.7804 37.4789 32.1066C37.4296 32.3192 37.793 34.0625 37.984 34.9527C37.9932 34.9998 38.0159 35.0432 38.0492 35.0776C38.0826 35.1121 38.1252 35.1361 38.1719 35.1469C38.2186 35.1576 38.2675 35.1546 38.3125 35.1381C38.3575 35.1217 38.3968 35.0925 38.4257 35.0542Z" fill="#2761C9"/>
<path d="M32.0408 26.6925C32.3602 25.8393 32.9718 24.1682 32.955 23.9507C32.8989 23.6132 32.7181 23.3092 32.4485 23.0988C32.1788 22.8884 31.8399 22.7869 31.4989 22.8146C31.158 22.8423 30.8399 22.9971 30.6077 23.2482C30.3755 23.4994 30.2461 23.8286 30.2453 24.1707C30.2633 24.3879 31.1375 25.9391 31.5884 26.7287C31.6113 26.771 31.646 26.8058 31.6882 26.8287C31.7305 26.8517 31.7785 26.8619 31.8264 26.858C31.8744 26.8542 31.9202 26.8365 31.9582 26.8071C31.9963 26.7777 32.025 26.7379 32.0408 26.6925Z" fill="#2761C9"/>
<path d="M31.8647 43.3583C31.9988 43.5306 33.582 44.347 34.392 44.7606C34.4344 44.7835 34.4824 44.7935 34.5304 44.7895C34.5783 44.7855 34.6241 44.7676 34.662 44.7381C34.7 44.7086 34.7286 44.6686 34.7442 44.6232C34.7599 44.5777 34.762 44.5286 34.7503 44.482C34.5482 43.5938 34.1437 41.8601 34.0097 41.6878C33.906 41.5307 33.7709 41.3968 33.6129 41.2944C33.455 41.1921 33.2775 41.1235 33.0918 41.0931C32.9061 41.0627 32.716 41.071 32.5337 41.1176C32.3513 41.1641 32.1805 41.248 32.0321 41.3637C31.8837 41.4795 31.7609 41.6248 31.6714 41.7903C31.5818 41.9559 31.5275 42.1382 31.5119 42.3257C31.4962 42.5133 31.5195 42.7021 31.5804 42.8802C31.6412 43.0583 31.7383 43.2219 31.8654 43.3607L31.8647 43.3583Z" fill="#2761C9"/>
<path d="M50.9023 45.0515C51.3777 44.2748 52.2984 42.7511 52.322 42.5345C52.3597 42.349 52.3583 42.1576 52.318 41.9725C52.2776 41.7875 52.1992 41.6129 52.0877 41.4598C51.9762 41.3068 51.834 41.1786 51.6703 41.0835C51.5065 40.9884 51.3247 40.9284 51.1365 40.9074C50.9483 40.8864 50.7578 40.9048 50.5771 40.9615C50.3964 41.0181 50.2295 41.1118 50.087 41.2365C49.9444 41.3612 49.8294 41.5142 49.7493 41.6857C49.6691 41.8573 49.6256 42.0437 49.6214 42.233C49.5967 42.45 50.1598 44.1429 50.4512 45.0007C50.4656 45.0466 50.493 45.0874 50.5301 45.118C50.5672 45.1487 50.6124 45.1679 50.6602 45.1732C50.708 45.1786 50.7564 45.17 50.7994 45.1484C50.8424 45.1268 50.8781 45.0931 50.9023 45.0515Z" fill="#2761C9"/>
<path d="M29.4764 36.455C29.7017 35.5729 30.1296 33.8452 30.0891 33.6308C29.9965 33.302 29.7839 33.0199 29.4933 32.8403C29.2027 32.6606 28.8553 32.5966 28.5198 32.6608C28.1842 32.725 27.885 32.9128 27.6812 33.187C27.4775 33.4612 27.384 33.8019 27.4194 34.1417C27.4598 34.356 28.4959 35.8035 29.0306 36.5397C29.0579 36.5793 29.0961 36.6101 29.1406 36.6283C29.1851 36.6466 29.2339 36.6515 29.2811 36.6425C29.3283 36.6336 29.3719 36.611 29.4066 36.5778C29.4412 36.5445 29.4655 36.5018 29.4764 36.455Z" fill="#2761C9"/>
<path d="M38.5424 51.7249C39.1035 51.0017 40.1719 49.5828 40.2185 49.3697C40.2691 49.0277 40.1879 48.6792 39.9914 48.3948C39.7949 48.1103 39.4977 47.9111 39.1599 47.8374C38.8221 47.7636 38.4689 47.8209 38.1718 47.9977C37.8746 48.1744 37.6557 48.4574 37.5592 48.7894C37.5126 49.0025 37.8953 50.7414 38.0959 51.6288C38.1051 51.6766 38.1281 51.7207 38.1621 51.7556C38.1962 51.7904 38.2397 51.8145 38.2873 51.8247C38.3349 51.835 38.3845 51.831 38.4299 51.8132C38.4753 51.7955 38.5144 51.7648 38.5424 51.7249Z" fill="#2761C9"/>
<path d="M23.6651 48.97C23.8154 49.1271 25.471 49.7822 26.3195 50.112C26.3639 50.1305 26.4128 50.1357 26.4602 50.1268C26.5076 50.118 26.5513 50.0956 26.5862 50.0623C26.621 50.0291 26.6454 49.9864 26.6563 49.9395C26.6673 49.8925 26.6644 49.8435 26.6479 49.7982C26.359 48.9358 25.7827 47.2507 25.6324 47.0935C25.5135 46.9477 25.3657 46.8281 25.1983 46.7422C25.031 46.6562 24.8476 46.6059 24.6599 46.5942C24.4721 46.5825 24.2839 46.6098 24.1072 46.6744C23.9305 46.739 23.7691 46.8394 23.633 46.9694C23.497 47.0993 23.3893 47.256 23.3167 47.4296C23.2442 47.6032 23.2083 47.7899 23.2114 47.978C23.2145 48.1661 23.2565 48.3516 23.3347 48.5227C23.4129 48.6938 23.5256 48.8469 23.6658 48.9723L23.6651 48.97Z" fill="#2761C9"/>
</svg>
