<svg width="39" height="50" viewBox="0 0 39 50" fill="none" xmlns="http://www.w3.org/2000/svg">
<path d="M9.56446 39.8553C7.74331 34.7101 14.9908 34.4243 18.176 28.3473C21.3609 22.2703 19.0401 18.7834 20.016 14.3892C21.46 7.88654 24.9732 6.15754 29.2028 13.7288C36.822 27.3675 19.4735 48.7864 12.0123 42.0245" stroke="#2761C9" stroke-width="2.4" stroke-linecap="round" stroke-linejoin="round"/>
<path d="M8.4852 39.8466C4.32121 38.6793 4.56051 42.3543 7.71703 43.5211C8.4452 43.7902 6.87023 44.9053 6.84296 45.6801C6.81909 46.3439 8.0061 48.0619 8.66829 48.1664C11.7362 48.6512 12.3091 44.9122 12.2875 42.7948" stroke="#2761C9" stroke-width="2.4" stroke-linecap="round" stroke-linejoin="round"/>
<path d="M20.6543 9.96931C16.6544 -0.46061 23.0939 6.35994 23.6524 6.53515C24.1865 6.70282 24.4459 5.59946 24.6678 5.08552C25.0097 4.29337 25.5078 2.20238 27.4055 2.64634C30.3865 3.34375 28.1847 7.08888 27.6048 8.43081" stroke="#2761C9" stroke-width="2.4" stroke-linecap="round" stroke-linejoin="round"/>
<path opacity="0.503384" d="M26.669 23.3187C25.2444 29.0196 24.1565 32.1094 19.6816 36.6165" stroke="#2761C9" stroke-width="2.1" stroke-linecap="round" stroke-linejoin="round"/>
</svg>
